<?xml version="1.0" encoding="UTF-8"?>
<svg width="24px" height="24px" viewBox="0 0 24 24" version="1.1" xmlns="http://www.w3.org/2000/svg" xmlns:xlink="http://www.w3.org/1999/xlink">
    <title>icon_cut2</title>
    <g id="icon_cut2" stroke="none" stroke-width="1" fill="none" fill-rule="evenodd">
        <g id="ohos_ic_public_cut" transform="translate(2.000000, 2.249699)" fill="#000000" fill-rule="nonzero">
            <path d="M16.55,0.150300714 C16.84,-0.0696992856 17.26,-0.0396992856 17.53,0.220300714 C17.8,0.490300714 17.82,0.900300714 17.6,1.20030071 L17.53,1.28030071 L7.71,11.1003007 C8.51,11.9103007 9,13.0203007 9,14.2503007 C9,16.7403007 6.99,18.7503007 4.5,18.7503007 C2.01,18.7503007 0,16.7403007 0,14.2503007 C0,11.7603007 2.01,9.75030071 4.5,9.75030071 C5.21,9.75030071 5.89,9.92030071 6.49,10.2103007 L6.49,10.2103007 L6.56,10.1203007 L8.93,7.75030071 L2.47,1.28030071 C2.18,0.990300714 2.18,0.510300714 2.47,0.220300714 C2.74,-0.0496992856 3.15,-0.0696992856 3.45,0.150300714 L3.53,0.220300714 L10,6.69030071 L16.47,0.220300714 L16.55,0.150300714 L16.55,0.150300714 Z M12.06,8.75030071 L13.43,10.1203007 C13.43,10.1203007 13.49,10.1803007 13.51,10.2103007 C14.11,9.91030071 14.79,9.75030071 15.5,9.75030071 C17.99,9.75030071 20,11.7603007 20,14.2503007 C20,16.7403007 17.99,18.7503007 15.5,18.7503007 C13.01,18.7503007 11,16.7403007 11,14.2503007 C11,13.0203007 11.49,11.9103007 12.29,11.1003007 L11,9.81030071 L12.06,8.75030071 Z M4.5,11.2503007 C2.84,11.2503007 1.5,12.5903007 1.5,14.2503007 C1.5,15.9103007 2.84,17.2503007 4.5,17.2503007 C6.16,17.2503007 7.5,15.9103007 7.5,14.2503007 C7.5,12.5903007 6.16,11.2503007 4.5,11.2503007 Z M15.5,11.2503007 C13.84,11.2503007 12.5,12.5903007 12.5,14.2503007 C12.5,15.9103007 13.84,17.2503007 15.5,17.2503007 C17.16,17.2503007 18.5,15.9103007 18.5,14.2503007 C18.5,12.5903007 17.16,11.2503007 15.5,11.2503007 Z" id="形状"></path>
        </g>
    </g>
</svg>