<?xml version="1.0" encoding="UTF-8"?>
<svg width="24px" height="24px" viewBox="0 0 24 24" version="1.1" xmlns="http://www.w3.org/2000/svg" xmlns:xlink="http://www.w3.org/1999/xlink">
    <title>从图库里选择</title>
    <g id="从图库里选择" stroke="none" stroke-width="1" fill="none" fill-rule="evenodd">
        <path d="M7.49350476,9.12350176 C8.33919079,9.12350176 9.02475476,9.80906574 9.02475476,10.6547518 C9.02475476,11.5004378 8.33919079,12.1860018 7.49350476,12.1860018 C6.64781874,12.1860018 5.96225476,11.5004378 5.96225476,10.6547518 C5.96225476,10.2486382 6.12357892,9.85915723 6.41074458,9.57199158 C6.69791023,9.28482592 7.0873912,9.12350176 7.49350476,9.12350176 L7.49350476,9.12350176 Z M15.6150448,2.02975176 C17.8438348,2.02975176 18.6520448,2.26181176 19.4668648,2.69758176 C20.2721562,3.12382358 20.9306829,3.78235034 21.3569248,4.58764176 C21.7926948,5.40245176 22.0247548,6.21067176 22.0247548,8.43946176 L22.0247548,14.4019818 C22.1321985,15.4586797 21.9473885,16.5245916 21.4904848,17.4834418 C21.2518364,17.934027 20.9210713,18.3293703 20.5196748,18.6437918 C20.5228748,18.4992618 20.5247548,18.3463618 20.5247548,18.1839218 L20.5247548,8.37558176 C20.6052091,7.41822882 20.42595,6.45689911 20.0058648,5.59288176 C19.6569182,4.93544494 19.1190616,4.3975883 18.4616248,4.04864176 C17.6819558,3.65956704 16.8140405,3.48130497 15.9441348,3.53157176 L5.87058476,3.52975176 C5.70786476,3.52975176 5.55470476,3.53164176 5.40992476,3.53560176 C5.72457862,3.13392113 6.12018533,2.80289854 6.57106476,2.56402176 C7.52991494,2.10711807 8.59582685,1.92230803 9.65252476,2.02975176 L15.6150448,2.02975176 Z M14.9176548,13.9781418 C14.6371548,14.0801553 14.3881498,14.2536364 14.1952748,14.4814218 L14.0727648,14.6021518 L11.6627648,17.0120318 C10.9402522,17.7337065 9.78605026,17.7836279 9.00392476,17.1270318 L8.87863476,17.0121318 L8.78198476,16.9155018 C8.59153331,16.6980157 8.36224004,16.5179044 8.10583476,16.3843818 L8.04399476,16.3610618 L7.98964476,16.3436518 C7.80897279,16.2874618 7.61549674,16.2874618 7.43482476,16.3436518 C7.15433168,16.4456627 6.90533329,16.6191405 6.71246476,16.8469218 L6.58995476,16.9676518 L3.75788476,19.7998818 C3.92999401,20.0542414 4.16234745,20.2620802 4.43424476,20.4048818 C5.02893167,20.6742932 5.68423305,20.7818341 6.33383476,20.7166218 L6.51155476,20.7172418 L15.0379548,20.7172418 C15.7458388,20.7991494 16.4627719,20.6913459 17.1152648,20.4048818 C17.1884695,20.3658309 17.2591698,20.3222564 17.3269548,20.2744118 L17.4241948,20.2008218 L17.4777548,20.1547518 L17.4482748,20.1828518 C17.4936081,20.1446851 17.5370081,20.1045451 17.5784748,20.0624318 C17.6199414,20.0203184 17.6594714,19.9762018 17.6970648,19.9300818 L17.6843048,19.9433018 C17.7667405,19.8430798 17.8389622,19.7348763 17.8998948,19.6203018 C18.1693062,19.0256149 18.2768471,18.3703135 18.2116348,17.7207118 L18.2122548,17.5429918 L18.2120348,16.4971618 L16.2648048,14.5500318 C16.0799484,14.342273 15.8611761,14.1673904 15.6178048,14.0328318 L15.5551048,14.0063618 L15.5004348,13.9869918 L15.4724348,13.9781818 C15.2917795,13.9219851 15.0983181,13.9219712 14.9176548,13.9781418 Z M15.0379548,4.52975176 C15.9486546,4.44012844 16.8667861,4.59484116 17.6978248,4.97796176 L17.7342348,4.99723176 C18.2702665,5.28083078 18.7139147,5.71194532 19.0127548,6.23963176 L19.0573048,6.32027176 C19.4570804,7.15927091 19.6187765,8.09194372 19.5247548,9.01655176 L19.5247548,14.7167518 L18.2117548,13.4027518 L18.2122548,9.01655176 C18.2941624,8.30866773 18.1863589,7.59173465 17.8998948,6.93924176 C17.7238526,6.60426927 17.4502373,6.33065392 17.1152648,6.15461176 C16.5205779,5.88520035 15.8652765,5.77765943 15.2156748,5.84287176 L15.1282848,5.84240176 L6.42122476,5.84240176 L6.24493476,5.84370176 C5.62455725,5.78694372 5.00015458,5.89415867 4.43424476,6.15461176 C4.09927227,6.33065392 3.82565692,6.60426927 3.64961476,6.93924176 C3.36315063,7.59173465 3.25534716,8.30866773 3.33725476,9.01655176 L3.33740476,17.6332818 L3.33870476,17.8095718 C3.34104476,18.0119818 3.34628476,18.1895718 3.35483476,18.3473618 L5.72703476,15.9749318 C6.08315565,15.5670016 6.54108669,15.2608079 7.05413476,15.0875718 C7.42228274,14.9748613 7.81325077,14.9588437 8.18938476,15.0410618 L8.37938476,15.0903918 L8.45260476,15.1138318 C8.86583257,15.2649927 9.23890789,15.5088724 9.54316476,15.8267318 L9.70642476,15.9838318 L9.80622476,16.0835818 C10.0337463,16.3107213 10.392157,16.3400178 10.6535448,16.1528418 L10.7349048,16.0837118 L13.2097848,13.6094318 C13.5659079,13.2015042 14.0238382,12.8953109 14.5368848,12.7220718 C14.9657887,12.5906419 15.4242208,12.5906419 15.8531248,12.7220718 C16.3026544,12.8675968 16.7083093,13.1239597 17.0326848,13.4675218 L17.1893348,13.6184418 L19.5247548,15.9535818 L19.5247548,17.7279818 C19.5999763,18.5873561 19.4419611,19.4511073 19.0673648,20.2281918 C18.7637781,20.8005633 18.2955663,21.2687751 17.7231948,21.5723618 C17.0911583,21.8928106 16.3882831,22.0480171 15.6800748,22.0235718 L15.4319048,22.0285718 L15.2229848,22.0297518 L6.32652476,22.0297518 C5.46715038,22.1049733 4.60339918,21.9469581 3.82631476,21.5723618 C3.25394545,21.2687722 2.78573437,20.8005611 2.48214476,20.2281918 L2.40942476,20.0859518 L2.34518476,19.9460718 L2.17338476,19.5482718 L2.20249476,19.5181418 C2.05944137,18.8699906 1.99971197,18.2062293 2.02475476,17.5429518 L2.02475476,9.01655176 C1.93513144,8.10585188 2.08984416,7.18772041 2.47296476,6.35668176 L2.49223476,6.32027176 C2.77583378,5.78424007 3.20694832,5.34059184 3.73463476,5.04175176 L3.81527476,4.99720176 C4.65427391,4.59742614 5.58694672,4.43573006 6.51155476,4.52975176 L15.0379548,4.52975176 Z" id="形状" fill="#000000" fill-rule="nonzero"></path>
    </g>
</svg>